<?xml version="1.0" standalone="no"?><!DOCTYPE svg PUBLIC "-//W3C//DTD SVG 1.1//EN" "http://www.w3.org/Graphics/SVG/1.1/DTD/svg11.dtd"><svg t="1725345063186" class="icon" viewBox="0 0 1152 1024" version="1.1" xmlns="http://www.w3.org/2000/svg" p-id="1673" xmlns:xlink="http://www.w3.org/1999/xlink" width="225" height="200"><path d="M55.324438 854.450352l36.762476-41.794926 365.876195-416.328642 32.668279-37.188954c12.367886-14.031154 21.707773-24.863716 30.407941-35.312448 32.071209-38.340448 53.736334-69.345459 69.686643-101.501964 16.93121-50.153911 3.582422-90.584105-28.574083-124.361229a57.83053 57.83053 0 0 1 40.003715-97.663654c5.586873-0.213239 8.956056-0.298535 10.917859-0.298535h7.122196c76.467656 0 125.427426 1.023549 192.086069 5.586873 73.013177 4.989802 129.436327 32.071209 169.866521 74.207318 16.590027 17.272393 28.574082 34.715377 36.847772 50.537742l15.054703 0.767662c2.302986 0.127944 10.960506-0.255887 24.010759-1.236789a58.001122 58.001122 0 0 1 27.294645 111.05509c-38.809574 16.803266-66.146868 60.389404-60.986474 81.030979 1.748563 6.866309 4.264788 13.732619 8.27369 22.603378 1.961803 4.350084 11.08845 23.413688 13.647323 28.915266 19.490083 42.775827 29.768223 84.016331 31.985912 145.471931 6.781014 189.399252-157.882466 356.280421-352.015633 356.280422-8.188394 0-18.893013 0.085296-32.156504 0.170591-20.982759 17.272393-43.117011 33.137406-66.189516 47.552391-153.958861 95.957739-348.433211 127.943651-578.177361 75.529402l-1.876507-0.426479a60.815882 60.815882 0 0 1-31.900617-99.540161c9.723718-10.960506 22.560731-25.332843 39.321349-44.055264z m88.409063 27.977012l-37.359546 41.624335c168.715028 31.730026 312.438397 12.282591 430.914218-46.997968-97.237175 1.194141-228.464714 2.985352-393.554672 5.373633z m641.040342-98.431316c120.096441-28.232899 213.452659-140.05565 209.059926-261.98595-1.791211-49.98332-9.382534-80.476557-24.394589-113.443371-2.047098-4.478028-11.301689-23.797519-13.775267-29.2138a212.727645 212.727645 0 0 1-13.220844-36.847772c-10.491379-41.880222 7.46338-91.223824 41.539039-129.436327l-26.015209-1.407381-8.273689-28.957913a82.736895 82.736895 0 0 0-5.117746-11.770816 137.710017 137.710017 0 0 0-23.371041-32.625631c-26.100505-27.20935-62.948277-44.865574-114.637511-48.447996a2221.528269 2221.528269 0 0 0-149.523481-5.288337c27.422589 47.76563 35.013913 104.615259 12.49583 168.203253l-1.833859 4.392732c-11.941407 24.223998-25.844618 47.424447-41.624335 69.302812 46.35825-1.108845 97.194527 11.557577 149.097002 42.861123 82.395712 49.684785 124.787708 154.044156 78.088275 295.507187-12.197295 36.933067-35.86687 78.344163-68.492501 119.158187z m-122.314131 7.207493c56.081967-51.092165 95.872443-108.240329 110.585963-152.807368 33.990363-102.951992 8.06045-166.881169-41.453743-196.734688-49.898024-30.066758-95.104781-35.994814-136.558524-24.39459-29.128505 8.188394-54.674587 25.034308-68.151319 40.174307-53.437798 59.707037-107.046188 119.286131-160.739874 178.694633l-2.942704 3.326535-142.230692 157.370691c210.339363-2.985352 357.431914-4.904507 441.490893-5.62952z" fill="#FFFFFF" p-id="1674"></path></svg>